<mxfile host="app.diagrams.net" modified="2024-01-29T10:59:54.812Z" agent="Mozilla/5.0 (Macintosh; Intel Mac OS X 10_15_7) AppleWebKit/537.36 (KHTML, like Gecko) Chrome/120.0.0.0 Safari/537.36" etag="q16JThcTUF-dIAwFZxmQ" version="22.1.15" type="github">
  <diagram name="第 1 页" id="4JWNXiwexbT1iynuYGmX">
    <mxGraphModel dx="1147" dy="636" grid="1" gridSize="10" guides="1" tooltips="1" connect="1" arrows="1" fold="1" page="1" pageScale="1" pageWidth="690" pageHeight="980" math="0" shadow="0">
      <root>
        <mxCell id="0" />
        <mxCell id="1" parent="0" />
        <mxCell id="eobjtdeH_WSvzS8tiGQI-31" value="" style="rounded=0;whiteSpace=wrap;html=1;fillColor=#00FF80;strokeColor=#9673a6;" vertex="1" parent="1">
          <mxGeometry x="100" y="150" width="540" height="260" as="geometry" />
        </mxCell>
        <mxCell id="eobjtdeH_WSvzS8tiGQI-3" value="RoomService" style="rounded=0;whiteSpace=wrap;html=1;fillColor=#1ba1e2;strokeColor=#006EAF;fontColor=#ffffff;" vertex="1" parent="1">
          <mxGeometry x="180" y="310" width="450" height="40" as="geometry" />
        </mxCell>
        <mxCell id="eobjtdeH_WSvzS8tiGQI-24" value="" style="whiteSpace=wrap;html=1;fillColor=#FF8000;fontColor=#333333;strokeColor=#666666;gradientColor=none;" vertex="1" parent="1">
          <mxGeometry x="180" y="360" width="450" height="40" as="geometry" />
        </mxCell>
        <mxCell id="eobjtdeH_WSvzS8tiGQI-26" value="tim" style="rounded=1;whiteSpace=wrap;html=1;" vertex="1" parent="1">
          <mxGeometry x="295" y="365" width="100" height="30" as="geometry" />
        </mxCell>
        <mxCell id="eobjtdeH_WSvzS8tiGQI-28" value="&lt;font color=&quot;#ffffff&quot;&gt;底层&lt;/font&gt;" style="rounded=0;whiteSpace=wrap;html=1;strokeColor=#FF3333;fillColor=#FF8000;" vertex="1" parent="1">
          <mxGeometry x="110" y="360" width="60" height="40" as="geometry" />
        </mxCell>
        <mxCell id="eobjtdeH_WSvzS8tiGQI-29" value="封装层" style="rounded=0;whiteSpace=wrap;html=1;fillColor=#1ba1e2;strokeColor=#006EAF;fontColor=#ffffff;" vertex="1" parent="1">
          <mxGeometry x="110" y="310" width="60" height="40" as="geometry" />
        </mxCell>
        <mxCell id="eobjtdeH_WSvzS8tiGQI-30" value="UI层" style="rounded=0;whiteSpace=wrap;html=1;fillColor=#9999FF;strokeColor=#3700CC;fontColor=#ffffff;gradientColor=none;" vertex="1" parent="1">
          <mxGeometry x="110" y="160" width="60" height="140" as="geometry" />
        </mxCell>
        <mxCell id="eobjtdeH_WSvzS8tiGQI-34" value="" style="group;fillColor=#fff2cc;strokeColor=#d6b656;" vertex="1" connectable="0" parent="1">
          <mxGeometry x="180" y="160" width="450" height="140" as="geometry" />
        </mxCell>
        <mxCell id="eobjtdeH_WSvzS8tiGQI-14" value="" style="rounded=0;whiteSpace=wrap;html=1;fillColor=#9999FF;strokeColor=#3700CC;fontColor=#ffffff;" vertex="1" parent="eobjtdeH_WSvzS8tiGQI-34">
          <mxGeometry width="450" height="140" as="geometry" />
        </mxCell>
        <mxCell id="eobjtdeH_WSvzS8tiGQI-4" value="" style="rounded=1;whiteSpace=wrap;html=1;fillColor=#fff2cc;strokeColor=#d6b656;" vertex="1" parent="eobjtdeH_WSvzS8tiGQI-34">
          <mxGeometry x="10" y="10" width="230" height="120" as="geometry" />
        </mxCell>
        <mxCell id="eobjtdeH_WSvzS8tiGQI-8" value="" style="group;fillColor=#a0522d;strokeColor=#6D1F00;fontColor=#ffffff;rounded=1;" vertex="1" connectable="0" parent="eobjtdeH_WSvzS8tiGQI-34">
          <mxGeometry x="250" y="10" width="190" height="120" as="geometry" />
        </mxCell>
        <mxCell id="eobjtdeH_WSvzS8tiGQI-6" value="" style="rounded=1;whiteSpace=wrap;html=1;fillColor=#fff2cc;strokeColor=#d6b656;" vertex="1" parent="eobjtdeH_WSvzS8tiGQI-8">
          <mxGeometry width="190" height="120" as="geometry" />
        </mxCell>
        <mxCell id="eobjtdeH_WSvzS8tiGQI-7" value="Extension" style="text;html=1;strokeColor=none;fillColor=none;align=center;verticalAlign=middle;whiteSpace=wrap;rounded=0;" vertex="1" parent="eobjtdeH_WSvzS8tiGQI-8">
          <mxGeometry width="60" height="30" as="geometry" />
        </mxCell>
        <mxCell id="eobjtdeH_WSvzS8tiGQI-5" value="ChatExtension" style="rounded=1;whiteSpace=wrap;html=1;fillColor=#f5f5f5;fontColor=#333333;strokeColor=#666666;" vertex="1" parent="eobjtdeH_WSvzS8tiGQI-8">
          <mxGeometry x="45" y="30" width="100" height="30" as="geometry" />
        </mxCell>
        <mxCell id="eobjtdeH_WSvzS8tiGQI-13" value="OtherExtension" style="rounded=1;whiteSpace=wrap;html=1;fillColor=#f5f5f5;fontColor=#333333;strokeColor=#666666;" vertex="1" parent="eobjtdeH_WSvzS8tiGQI-8">
          <mxGeometry x="45" y="70" width="100" height="30" as="geometry" />
        </mxCell>
        <mxCell id="eobjtdeH_WSvzS8tiGQI-15" value="RoomKit" style="text;html=1;strokeColor=none;fillColor=none;align=center;verticalAlign=middle;whiteSpace=wrap;rounded=0;" vertex="1" parent="eobjtdeH_WSvzS8tiGQI-34">
          <mxGeometry x="10" y="10" width="60" height="30" as="geometry" />
        </mxCell>
        <mxCell id="eobjtdeH_WSvzS8tiGQI-21" value="Interface" style="rounded=1;whiteSpace=wrap;html=1;fillColor=#f5f5f5;fontColor=#333333;strokeColor=#666666;" vertex="1" parent="eobjtdeH_WSvzS8tiGQI-34">
          <mxGeometry x="20" y="40" width="100" height="30" as="geometry" />
        </mxCell>
        <mxCell id="eobjtdeH_WSvzS8tiGQI-22" value="Store" style="rounded=1;whiteSpace=wrap;html=1;fillColor=#f5f5f5;fontColor=#333333;strokeColor=#666666;" vertex="1" parent="eobjtdeH_WSvzS8tiGQI-34">
          <mxGeometry x="20" y="80" width="100" height="30" as="geometry" />
        </mxCell>
        <mxCell id="eobjtdeH_WSvzS8tiGQI-23" value="Event" style="rounded=1;whiteSpace=wrap;html=1;fillColor=#f5f5f5;fontColor=#333333;strokeColor=#666666;" vertex="1" parent="eobjtdeH_WSvzS8tiGQI-34">
          <mxGeometry x="130" y="40" width="100" height="30" as="geometry" />
        </mxCell>
        <mxCell id="eobjtdeH_WSvzS8tiGQI-32" value="Logger" style="rounded=1;whiteSpace=wrap;html=1;fillColor=#f5f5f5;fontColor=#333333;strokeColor=#666666;" vertex="1" parent="eobjtdeH_WSvzS8tiGQI-34">
          <mxGeometry x="130" y="80" width="100" height="30" as="geometry" />
        </mxCell>
        <mxCell id="eobjtdeH_WSvzS8tiGQI-35" value="trtc" style="rounded=1;whiteSpace=wrap;html=1;" vertex="1" parent="1">
          <mxGeometry x="420" y="365" width="100" height="30" as="geometry" />
        </mxCell>
      </root>
    </mxGraphModel>
  </diagram>
</mxfile>
